 http://www.imdb.com/title/tt2319889/

Format : Matroska (MKv)
Format version : Version 2
File size : 1.71 GiB
Duration : 2h 14mn
Overall bit rate : 1 821 Kbps
Writing library : libebml v1.2.0 + libmatroska v1.1.0

Video

ID : 1
Format : AVC
Format/Info : Advanced Video Codec
Format profile : High@L4.1
Format settings, CABAC : Yes
Format settings, ReFrames : 4 frames
Bit rate : 1 500 Kbps
Width : 1 280 pixels
Height : 544 pixels
Display aspect ratio : 2.35:1
Frame rate : 24.000 fps
Stream size : 1.37 GiB (80%)


Audio

ID : 2
Format : AC-3
Format/Info : Audio Coding 3
Bit rate mode : Constant
Bit rate : 320 Kbps
Channel(s) : 6 channels
Channel positions : Front: L C R, Side: L R, LFE
Sampling rate : 48.0 KHz
Stream size : 308 MiB (18%)

 
http://www.shotpix.com/images/32663698041927211686.png
 
http://www.shotpix.com/images/95330865241986930706.png
 
http://www.shotpix.com/images/91683344512859659062.png
 
http://www.shotpix.com/images/70941712036259900672.png
 
http://www.shotpix.com/images/86387058728800387526.png
 
http://www.shotpix.com/images/82021591750232288270.png
